# xmcd
#
# Track frame offsets: 
#        150
#        16492
#        32322
#        48354
#        67369
#        95606
#        112093
#        122926
#        135756
#        146302
#        160479
#        171731
#        185837
#        197076
#        208342
#
# Disc length: 2893 seconds
#
# Revision: 4
# Processed by: cddbd v1.5.2PL0 Copyright (c) Steve Scherf et al.
# Submitted via: ExactAudioCopy v0.99pb3
#
DISCID=e80b4b0f
DTITLE=Ray Charles - The Best Of
DYEAR=2004
DGENRE=Blues
TTITLE0=Georgia On My Mind
TTITLE1=Cry
TTITLE2=Your Cheating Heart
TTITLE3=I Can't Stop Loving You
TTITLE4=I Got A Woman
TTITLE5=What Am I Living For
TTITLE6=Sentimental Blues
TTITLE7=Baby Won't You Please Come Home
TTITLE8=Hey Now
TTITLE9=Blues Is My Middle Name
TTITLE10=She's On The Ball
TTITLE11=Understanding
TTITLE12=I Don't Need No Doctor
TTITLE13=My Baby Don't Dig Me
TTITLE14=Hit The Road Jack
EXTD=
EXTT0=
EXTT1=
EXTT2=
EXTT3=
EXTT4=
EXTT5=
EXTT6=
EXTT7=
EXTT8=
EXTT9=
EXTT10=
EXTT11=
EXTT12=
EXTT13=
EXTT14=
PLAYORDER=
